<svg xmlns="http://www.w3.org/2000/svg" viewBox="0 0 29.5 35.19"><defs><style>.cls-1{fill:#fff;}</style></defs><title>Asset 1</title><g id="Layer_2" data-name="Layer 2"><g id="Top_banner" data-name="Top banner"><path class="cls-1" d="M3.29,20.5H14.16v1.28H0V0H3.29Z"/><path class="cls-1" d="M19.08,12.54A12.78,12.78,0,0,1,28.15,16l-1.21,1.15a9.28,9.28,0,0,0-7.07-3.17c-4.5,0-8.57,3.23-9.52,8.46C9.26,28.28,12.65,33,17.8,33.85a10.23,10.23,0,0,0,1.65.15,9.2,9.2,0,0,0,6.73-3V26.07h-6.5V24.79H29.5v10l-2.73-1.87a13,13,0,0,1-7.69,2.31c-6.86.06-12.41-4.61-12.38-11.33S12.22,12.47,19.08,12.54Z"/></g></g></svg>