<svg xmlns="http://www.w3.org/2000/svg" viewBox="0 0 87.09 87.33"><defs><style>.cls-1{font-size:12.41px;font-family:Mallory-Book, Mallory;}.cls-1,.cls-2{fill:#fff;}</style></defs><title>Asset 6</title><g id="Layer_2" data-name="Layer 2"><g id="Top_banner" data-name="Top banner"><text class="cls-1" transform="translate(3 53.12) rotate(68.08) scale(1.06 1)">N</text><text class="cls-1" transform="translate(8.25 65.14) rotate(50.13) scale(1.06 1)">H</text><text class="cls-1" transform="matrix(0.84, 0.65, -0.61, 0.79, 16.61, 74.3)">Ì</text><text class="cls-1" transform="translate(20.73 77.36) rotate(31.46) scale(1.06 1)"> </text><text class="cls-1" transform="translate(24.35 79.67) rotate(22.14) scale(1.06 1)">P</text><text class="cls-1" transform="translate(33.51 83.3) rotate(6.52) scale(1.06 1)">H</text><text class="cls-1" transform="translate(46.5 84.44) rotate(-11.48) scale(1.06 1)">Ố</text><text class="cls-1" transform="matrix(0.97, -0.42, 0.4, 0.92, 58.79, 81.34)"> </text><text class="cls-1" transform="translate(63.34 79.81) rotate(-37.22) scale(1.06 1)">M</text><text class="cls-1" transform="translate(75.69 69.58) rotate(-57.46) scale(1.06 1)">Ớ</text><text class="cls-1" transform="matrix(0.36, -0.99, 0.94, 0.34, 82.06, 58.5)">I</text><text class="cls-1" transform="translate(10.92 40.92) rotate(-77.36) scale(1.06 1)">N</text><text class="cls-1" transform="matrix(0.55, -0.9, 0.85, 0.52, 13.23, 30.54)">H</text><text class="cls-1" transform="translate(18.75 21.51) rotate(-40.39) scale(1.06 1)">Ấ</text><text class="cls-1" transform="translate(25.71 15.48) rotate(-25.03) scale(1.06 1)">T</text><text class="cls-1" transform="translate(34.25 11.82) rotate(-14.25) scale(1.06 1)"> </text><text class="cls-1" transform="translate(37.06 10.82) rotate(-3.54) scale(1.06 1)">K</text><text class="cls-1" transform="translate(46.16 10.52) rotate(8.05) scale(1.06 1)">I</text><text class="cls-1" transform="translate(50.26 10.71) rotate(21.26) scale(1.06 1)">N</text><text class="cls-1" transform="matrix(0.81, 0.68, -0.64, 0.77, 60.21, 14.57)">H</text><text class="cls-1" transform="translate(68.17 21.79) rotate(52.01) scale(1.06 1)"> </text><text class="cls-1" transform="matrix(0.48, 0.94, -0.89, 0.46, 70.22, 23.96)">K</text><text class="cls-1" transform="translate(74.33 31.97) rotate(78.43) scale(1.06 1)">Ỳ</text><circle class="cls-2" cx="6.51" cy="45.65" r="1.53"/><circle class="cls-2" cx="80.67" cy="45.65" r="1.53"/></g></g></svg>