<svg xmlns="http://www.w3.org/2000/svg" viewBox="0 0 59.72 40.04"><defs><style>.cls-1{fill:#d1b46d;}</style></defs><title>Asset 1</title><g id="Layer_2" data-name="Layer 2"><g id="Top_banner" data-name="Top banner"><path class="cls-1" d="M13.88,40a7.77,7.77,0,0,1-7.76-7.76.58.58,0,1,1,1.16,0,6.6,6.6,0,0,0,13.19,0,.59.59,0,0,1,.59-.58.58.58,0,0,1,.58.58A7.77,7.77,0,0,1,13.88,40Z"/><path class="cls-1" d="M13.88,36.1a3.83,3.83,0,0,1-3.83-3.82.58.58,0,0,1,.58-.58.59.59,0,0,1,.59.58,2.66,2.66,0,0,0,5.32,0,.58.58,0,0,1,1.16,0A3.83,3.83,0,0,1,13.88,36.1Z"/><path class="cls-1" d="M.58,32.86a.55.55,0,0,1-.45-.22.54.54,0,0,1-.11-.5C1.78,24.8,8.37,20.3,13.48,18.68a17,17,0,0,1,5.2-.87,8.94,8.94,0,0,1,6,1.92c2.49,2.19,3.17,5.14,2,8.54a15.29,15.29,0,0,1-2.53,4.39.61.61,0,0,1-.44.2ZM18.68,19a15.89,15.89,0,0,0-4.85.81C9.27,21.23,3.66,25,1.55,31l-.23.67H23.38l.15-.2c1.21-1.57,4.81-7,.36-10.89A7.76,7.76,0,0,0,18.68,19Z"/><path class="cls-1" d="M44.11,32.88a6,6,0,0,1-2.54-.6.6.6,0,0,1-.32-.67c.59-2.28,2.48-7.71,7.45-8.9a11.4,11.4,0,0,1,2.67-.33A8.32,8.32,0,0,1,59.7,28.7a.59.59,0,0,1-.09.51.6.6,0,0,1-.47.23H53a6,6,0,0,0-3.59.95l-.54.41a7.81,7.81,0,0,1-4.75,2.08Zm7.25-9.34a10.09,10.09,0,0,0-2.39.3c-3.81.91-5.59,4.84-6.31,7.09l-.16.51.51.13a4.31,4.31,0,0,0,1.12.15,6.66,6.66,0,0,0,4-1.84c.21-.17.39-.31.56-.43A7.1,7.1,0,0,1,53,28.28h5.38L58,27.55A7.16,7.16,0,0,0,51.36,23.54Z"/><path class="cls-1" d="M51.07,39.81A7.76,7.76,0,0,1,43.36,33a.59.59,0,0,1,.12-.43.62.62,0,0,1,.39-.22h0a.6.6,0,0,1,.64.52A6.6,6.6,0,1,0,57,29.07a.57.57,0,0,1,0-.44.58.58,0,0,1,.29-.34.56.56,0,0,1,.78.25,7.76,7.76,0,0,1-6.92,11.27Z"/><path class="cls-1" d="M51.07,35.87a3.83,3.83,0,0,1-3.82-3.82A3.4,3.4,0,0,1,47.41,31a.57.57,0,0,1,.55-.41.47.47,0,0,1,.17,0,.53.53,0,0,1,.34.28.57.57,0,0,1,.05.44,2.41,2.41,0,0,0-.11.72,2.67,2.67,0,1,0,3.41-2.56.58.58,0,0,1-.4-.72.61.61,0,0,1,.56-.42.41.41,0,0,1,.16,0,3.82,3.82,0,0,1-1.07,7.49Z"/><path class="cls-1" d="M23.67,32.88a.58.58,0,0,1,0-1.16H31c4.12,0,7.61-1,10.1-2.95a11.24,11.24,0,0,0,4.29-8.43c.41-5.21-2.1-12.84-2.13-12.92a.57.57,0,0,1,.08-.52.59.59,0,0,1,.47-.24h2.28l.15-.24a4.85,4.85,0,0,0,0-5l-.16-.28-.31,0a5,5,0,0,0-3.43,1.49A6.75,6.75,0,0,0,41,7.24v.1a100.81,100.81,0,0,1,2.21,10.34c.4,4.59-1.57,7.26-3.28,8.69a11.65,11.65,0,0,1-7.23,2.53,8.71,8.71,0,0,1-2.25-.28,2.27,2.27,0,0,1-1.72-1.53c-.74-2.33,2.16-6.24,3.07-7.38l.11-.14V15.91H13.18l-6,7.23a.61.61,0,0,1-.45.2.56.56,0,0,1-.37-.13.59.59,0,0,1-.08-.82L12.46,15a.57.57,0,0,1,.44-.2H32.47a.58.58,0,0,1,.58.58v4.45a.62.62,0,0,1-.13.37c-1.45,1.76-3.58,5.1-3.1,6.59.07.24.25.58.92.76a7.39,7.39,0,0,0,1.95.24,10.42,10.42,0,0,0,6.47-2.26c2.19-1.82,3.16-4.41,2.87-7.7a102.72,102.72,0,0,0-2.2-10.25A8,8,0,0,1,41.51,1.9,6.3,6.3,0,0,1,46.41,0a.58.58,0,0,1,.45.22,6.05,6.05,0,0,1,0,7.37.56.56,0,0,1-.46.23H44.63l.19.64c.79,2.73,2.07,7.92,1.75,12a12.51,12.51,0,0,1-4.74,9.26C39.14,31.78,35.4,32.88,31,32.88Z"/><path class="cls-1" d="M50,22.78a.58.58,0,0,1-.58-.58V19.5l-3.31-2a.59.59,0,0,1-.27-.35.6.6,0,0,1,.57-.73.6.6,0,0,1,.29.08l3.59,2.13a.59.59,0,0,1,.29.5v3A.58.58,0,0,1,50,22.78Z"/><path class="cls-1" d="M3.07,22.16a.58.58,0,0,1-.52-.32.59.59,0,0,1,0-.6l3-4.3a.61.61,0,0,1,.48-.25h5.21a.58.58,0,0,1,0,1.16H6.36L4.18,21H7.69a.59.59,0,0,1,.59.58.6.6,0,0,1-.59.59Z"/><path class="cls-1" d="M11.43,25.33a.36.36,0,0,1-.36-.36.37.37,0,0,1,.36-.37h8.09a.38.38,0,0,1,.37.37.37.37,0,0,1-.37.36Z"/><path class="cls-1" d="M9.83,27.56a.36.36,0,0,1-.36-.36.37.37,0,0,1,.36-.37h8.09a.37.37,0,0,1,.36.37.36.36,0,0,1-.36.36Z"/><path class="cls-1" d="M8.23,29.81a.37.37,0,0,1,0-.73h8.09a.37.37,0,1,1,0,.73Z"/><path class="cls-1" d="M40.68,7.82a.58.58,0,1,1,0-1.16h3.15a.58.58,0,0,1,0,1.16Z"/><path class="cls-1" d="M36,6.91a.58.58,0,0,1-.15-1.14L44.24,3.5l.16,0a.59.59,0,0,1,.56.43.56.56,0,0,1-.06.44.56.56,0,0,1-.35.27L36.11,6.89A.39.39,0,0,1,36,6.91Z"/><path class="cls-1" d="M22.14,12.86a.59.59,0,0,1-.4-.16l-2.62-2.44a.58.58,0,0,1,0-.82.57.57,0,0,1,.42-.19.59.59,0,0,1,.4.16l2.44,2.29h9.51a.58.58,0,1,1,0,1.16Z"/></g></g></svg>