<svg xmlns="http://www.w3.org/2000/svg" viewBox="0 0 74.58 21.74"><defs><style>.cls-1{fill:#074a49;}</style></defs><title>Asset 2</title><g id="Layer_2" data-name="Layer 2"><g id="Top_banner" data-name="Top banner"><path class="cls-1" d="M4.86,0h.83L2.89,5.76H2.71L0,0H.86l2,4.34Z"/><path class="cls-1" d="M9.14,5.63H8.36V0h.78Z"/><path class="cls-1" d="M16.7,5.63h-1l-2-2.24h-.61V5.63h-.77V0H14a2,2,0,0,1,1.36.45,1.5,1.5,0,0,1,.52,1.21,1.52,1.52,0,0,1-.35,1,1.81,1.81,0,0,1-1,.58ZM15.1,1.69a.87.87,0,0,0-.31-.7A1.2,1.2,0,0,0,14,.72h-.84v2h.8a1.18,1.18,0,0,0,.84-.29A.91.91,0,0,0,15.1,1.69Z"/><path class="cls-1" d="M23.5,0v.7H21.3v4.9h-.77V.73H18.34V0Z"/><path class="cls-1" d="M28.53,5.73a2.36,2.36,0,0,1-1.78-.68,2.63,2.63,0,0,1-.65-1.87V0h.78V3.2a1.93,1.93,0,0,0,.44,1.34A1.57,1.57,0,0,0,28.54,5a1.59,1.59,0,0,0,1.23-.48,2,2,0,0,0,.44-1.36V0H31V3.18a2.59,2.59,0,0,1-.64,1.87A2.34,2.34,0,0,1,28.53,5.73Z"/><path class="cls-1" d="M34.08,5.63h-.8L35.89,0h.71l2.51,5.63h-.83l-.62-1.44H34.73ZM36.22.88,35,3.51h2.33Z"/><path class="cls-1" d="M44.94,5.63H41.76V0h.78V4.94h2.4Z"/><path class="cls-1" d="M5.19,8v.7H3v4.9H2.22V8.73H0V8Z"/><path class="cls-1" d="M10.27,13.74a2.84,2.84,0,0,1-2.08-.84,2.79,2.79,0,0,1-.84-2.06A2.82,2.82,0,0,1,8.2,8.76a2.86,2.86,0,0,1,2.09-.84,2.87,2.87,0,0,1,2.91,2.9,2.79,2.79,0,0,1-.85,2.08A2.84,2.84,0,0,1,10.27,13.74Zm0-5.1a2,2,0,0,0-1.5.64,2.14,2.14,0,0,0-.62,1.54,2.19,2.19,0,0,0,.62,1.57,2,2,0,0,0,1.51.63,2.05,2.05,0,0,0,1.51-.63,2.13,2.13,0,0,0,.63-1.55,2.15,2.15,0,0,0-.63-1.56A2,2,0,0,0,10.26,8.64Z"/><path class="cls-1" d="M18.39,13.73a2.34,2.34,0,0,1-1.77-.68A2.58,2.58,0,0,1,16,11.18V8h.77V11.2a1.93,1.93,0,0,0,.44,1.34,1.6,1.6,0,0,0,1.23.48,1.57,1.57,0,0,0,1.22-.48,1.92,1.92,0,0,0,.44-1.36V8h.75v3.15a2.59,2.59,0,0,1-.65,1.87A2.34,2.34,0,0,1,18.39,13.73Z"/><path class="cls-1" d="M28.27,13.63h-1l-2-2.24h-.6v2.24H24V8h1.63A2,2,0,0,1,27,8.48a1.53,1.53,0,0,1,.51,1.21,1.46,1.46,0,0,1-.35,1,1.75,1.75,0,0,1-.95.58ZM26.68,9.69a.87.87,0,0,0-.31-.7,1.2,1.2,0,0,0-.81-.27h-.85v2h.81a1.19,1.19,0,0,0,.84-.29A.94.94,0,0,0,26.68,9.69Z"/><path class="cls-1" d="M2.47,18.7a1.78,1.78,0,0,1,.91.55,1.35,1.35,0,0,1,.32.89,1.42,1.42,0,0,1-.54,1.13,2,2,0,0,1-1.32.45,3,3,0,0,1-.76-.09,3.33,3.33,0,0,1-.78-.37l-.14-.88h0a4.19,4.19,0,0,0,.87.51,2,2,0,0,0,.77.15,1.21,1.21,0,0,0,.79-.26.81.81,0,0,0,.32-.65.88.88,0,0,0-.45-.77,3.57,3.57,0,0,0-1.39-.42v-.28a4.93,4.93,0,0,0,1.32-.59.84.84,0,0,0,.39-.69.69.69,0,0,0-.24-.55,1,1,0,0,0-.65-.21,1.91,1.91,0,0,0-.71.16,3.62,3.62,0,0,0-.84.51h0v-.83a3.54,3.54,0,0,1,.84-.41A2.77,2.77,0,0,1,2,15.94a1.78,1.78,0,0,1,1.17.37,1.31,1.31,0,0,1,.15,1.78A2.21,2.21,0,0,1,2.47,18.7Z"/><path class="cls-1" d="M8.45,18.06a1.63,1.63,0,0,1,1.2.49,1.74,1.74,0,0,1,.49,1.26,1.85,1.85,0,0,1-.58,1.37,2,2,0,0,1-1.44.56,1.85,1.85,0,0,1-1.4-.54,2,2,0,0,1-.52-1.45,2.78,2.78,0,0,1,.24-1.11,8.47,8.47,0,0,1,.89-1.43L8.18,16h.88L8,17.46l-.3.42-.23.35A2.38,2.38,0,0,1,8,18.1,2.49,2.49,0,0,1,8.45,18.06Zm-1.28.73a2.14,2.14,0,0,0-.17.48,1.84,1.84,0,0,0-.06.47,1.42,1.42,0,0,0,.33,1,1.1,1.1,0,0,0,.87.37,1.24,1.24,0,0,0,.9-.35,1.19,1.19,0,0,0,.35-.89A1.09,1.09,0,0,0,9.05,19a1.45,1.45,0,0,0-1-.3,3.11,3.11,0,0,0-.43,0C7.5,18.73,7.34,18.75,7.17,18.79Z"/><path class="cls-1" d="M12.62,18.84a3.42,3.42,0,0,1,.62-2.1,2,2,0,0,1,3.18,0,3.42,3.42,0,0,1,.6,2.08,3.43,3.43,0,0,1-.61,2.11,1.91,1.91,0,0,1-1.59.81,1.88,1.88,0,0,1-1.59-.81A3.43,3.43,0,0,1,12.62,18.84Zm.75,0a2.87,2.87,0,0,0,.41,1.62,1.22,1.22,0,0,0,1.05.62,1.2,1.2,0,0,0,1.05-.62,2.85,2.85,0,0,0,.4-1.6,2.91,2.91,0,0,0-.41-1.61,1.23,1.23,0,0,0-1-.63,1.22,1.22,0,0,0-1.05.62A2.9,2.9,0,0,0,13.37,18.82Z"/><path class="cls-1" d="M19.41,17.34a1.94,1.94,0,0,1,.36-1.22,1.09,1.09,0,0,1,.93-.48,1.11,1.11,0,0,1,.92.47A2,2,0,0,1,22,17.33a2,2,0,0,1-.35,1.23,1.13,1.13,0,0,1-.93.47,1.09,1.09,0,0,1-.93-.47A2,2,0,0,1,19.41,17.34Zm.43,0a1.68,1.68,0,0,0,.24.94.72.72,0,0,0,.62.37.71.71,0,0,0,.61-.36,1.79,1.79,0,0,0,.23-.94,1.68,1.68,0,0,0-.24-.94.69.69,0,0,0-1.22,0A1.65,1.65,0,0,0,19.84,17.33Z"/><path class="cls-1" d="M66.49,12.22V11.8c4.8-.17,7.67-1.3,7.67-2.3,0-.72-1.5-1.65-3.89-2.09l0-.23a11.64,11.64,0,0,1,3,.92c.83.41,1.25.88,1.25,1.4,0,.73-.83,1.38-2.39,1.88A22.64,22.64,0,0,1,66.49,12.22Z"/><path class="cls-1" d="M64.74,11.93l-1.83-1.25v1.06A20.76,20.76,0,0,1,58.33,11c-1.39-.43-2.19-1-2.19-1.48,0-.71,1.49-1.67,3.85-2.11l0-.2a11.81,11.81,0,0,0-3,.91c-.82.41-1.23.88-1.23,1.4,0,.73.86,1.38,2.49,1.88a21.26,21.26,0,0,0,4.71.78v1.07Z"/><path class="cls-1" d="M64.74,11.93l-1.83-1.25v1.06A20.76,20.76,0,0,1,58.33,11c-1.39-.43-2.19-1-2.19-1.48,0-.71,1.49-1.67,3.85-2.11l0-.2a11.81,11.81,0,0,0-3,.91c-.82.41-1.23.88-1.23,1.4,0,.73.86,1.38,2.49,1.88a21.26,21.26,0,0,0,4.71.78v1.07Z"/><path class="cls-1" d="M62.33,6.36a1.06,1.06,0,0,1,.49.31.83.83,0,0,1-.14,1.15,1.19,1.19,0,0,1-.77.25A2,2,0,0,1,61.46,8,1.76,1.76,0,0,1,61,7.81l-.09-.6h0a2.47,2.47,0,0,0,.49.29,1.2,1.2,0,0,0,.45.09.64.64,0,0,0,.4-.13.38.38,0,0,0,.16-.32.43.43,0,0,0-.23-.38,2.11,2.11,0,0,0-.77-.24V6.33A2.75,2.75,0,0,0,62.15,6a.43.43,0,0,0,.21-.35.34.34,0,0,0-.12-.27.59.59,0,0,0-.33-.1,1,1,0,0,0-.41.09,2.07,2.07,0,0,0-.47.29h0V5.1a2.67,2.67,0,0,1,.48-.24A1.78,1.78,0,0,1,62,4.8a1.05,1.05,0,0,1,.69.21.72.72,0,0,1,.26.58.68.68,0,0,1-.15.43A1.32,1.32,0,0,1,62.33,6.36Z"/><path class="cls-1" d="M64.81,6a.94.94,0,0,1,.69.28,1,1,0,0,1,.28.73,1.07,1.07,0,0,1-.34.8,1.18,1.18,0,0,1-.85.33,1.1,1.1,0,0,1-.83-.32,1.13,1.13,0,0,1-.31-.84,1.67,1.67,0,0,1,.13-.61,5,5,0,0,1,.5-.81l.47-.66h.65l-.66.87-.15.21s0,.07-.06.1L64.57,6Zm-.69.49a1.52,1.52,0,0,0-.09.25,1,1,0,0,0,0,.23.68.68,0,0,0,.17.5.53.53,0,0,0,.43.19.62.62,0,0,0,.46-.18A.58.58,0,0,0,65.24,7a.52.52,0,0,0-.18-.43.7.7,0,0,0-.5-.16l-.21,0Z"/><path class="cls-1" d="M66.24,6.44a1.89,1.89,0,0,1,.36-1.19,1.15,1.15,0,0,1,.94-.47,1.12,1.12,0,0,1,.93.47,1.86,1.86,0,0,1,.36,1.18,1.89,1.89,0,0,1-.36,1.19,1.13,1.13,0,0,1-.94.47,1.12,1.12,0,0,1-.93-.46A1.87,1.87,0,0,1,66.24,6.44Zm.55,0a1.48,1.48,0,0,0,.21.83.62.62,0,0,0,.54.33.63.63,0,0,0,.54-.32,1.5,1.5,0,0,0,.2-.83,1.48,1.48,0,0,0-.21-.83.62.62,0,0,0-.54-.33A.61.61,0,0,0,67,5.6,1.5,1.5,0,0,0,66.79,6.43Z"/><path class="cls-1" d="M69.24,5.59a1.09,1.09,0,0,1,.21-.69.68.68,0,0,1,1.09,0,1.09,1.09,0,0,1,.21.69,1.1,1.1,0,0,1-.21.7.69.69,0,0,1-.55.27.66.66,0,0,1-.55-.27A1.09,1.09,0,0,1,69.24,5.59Zm.32,0a.89.89,0,0,0,.12.49.35.35,0,0,0,.31.19.36.36,0,0,0,.32-.19.85.85,0,0,0,.12-.48.83.83,0,0,0-.13-.49.36.36,0,0,0-.62,0A.9.9,0,0,0,69.56,5.58Z"/></g></g></svg>