<svg width="35" height="35" viewBox="0 0 35 35" fill="none" xmlns="http://www.w3.org/2000/svg">
<path d="M17.1001 33.1001C25.9367 33.1001 33.1001 25.9367 33.1001 17.1001C33.1001 8.26354 25.9367 1.1001 17.1001 1.1001C8.26354 1.1001 1.1001 8.26354 1.1001 17.1001C1.1001 25.9367 8.26354 33.1001 17.1001 33.1001Z" stroke="#174D4E" stroke-width="0.4222" stroke-miterlimit="10"/>
<path d="M17.1001 34.1001C26.4889 34.1001 34.1001 26.4889 34.1001 17.1001C34.1001 7.71126 26.4889 0.100098 17.1001 0.100098C7.71126 0.100098 0.100098 7.71126 0.100098 17.1001C0.100098 26.4889 7.71126 34.1001 17.1001 34.1001Z" stroke="#174D4E" stroke-width="0.2041" stroke-miterlimit="10"/>
<path d="M17.1 31.9C25.2739 31.9 31.9 25.2739 31.9 17.1C31.9 8.92623 25.2739 2.30005 17.1 2.30005C8.92623 2.30005 2.30005 8.92623 2.30005 17.1C2.30005 25.2739 8.92623 31.9 17.1 31.9Z" stroke="#174D4E" stroke-width="0.6334" stroke-miterlimit="10"/>
<path d="M17.1001 31.1001C24.8321 31.1001 31.1001 24.8321 31.1001 17.1001C31.1001 9.36811 24.8321 3.1001 17.1001 3.1001C9.36811 3.1001 3.1001 9.36811 3.1001 17.1001C3.1001 24.8321 9.36811 31.1001 17.1001 31.1001Z" fill="#174D4E"/>
<path d="M19.2001 30.8002C19.2001 30.7002 19.2001 30.7002 19.2001 30.6002C19.2001 27.5002 19.2001 24.5002 19.2001 21.4002C19.2001 21.0002 19.2001 21.0002 19.6001 21.0002C20.5001 21.0002 21.4001 21.0002 22.3001 21.0002C22.5001 21.0002 22.5001 21.0002 22.6001 20.8002C22.8001 19.7002 22.9001 18.5002 23.1001 17.4002C23.1001 17.1002 23.1001 17.1002 22.8001 17.1002C21.7001 17.1002 20.6001 17.1002 19.6001 17.1002C19.3001 17.1002 19.3001 17.1002 19.3001 16.8002C19.3001 16.0002 19.3001 15.1002 19.3001 14.3002C19.3001 13.7002 19.5001 13.1002 20.0001 12.7002C20.3001 12.4002 20.7001 12.3002 21.1001 12.2002C21.3001 12.2002 21.4001 12.2002 21.6001 12.2002C22.1001 12.2002 22.6001 12.2002 23.1001 12.2002C23.3001 12.2002 23.3001 12.2002 23.3001 12.0002C23.3001 11.0002 23.3001 10.1002 23.3001 9.10021C23.3001 8.90021 23.3001 8.90021 23.1001 8.90021C22.6001 8.80021 22.0001 8.80021 21.5001 8.70021C21.0001 8.70021 20.4001 8.60021 19.9001 8.70021C18.9001 8.70021 18.0001 9.00021 17.2001 9.50021C16.3001 10.0002 15.7001 10.8002 15.4001 11.8002C15.2001 12.3002 15.1001 12.9002 15.0001 13.5002C15.0001 13.7002 15.0001 14.0002 15.0001 14.2002C15.0001 15.1002 15.0001 16.0002 15.0001 16.9002C15.0001 17.3002 15.0001 17.3002 14.6001 17.3002C13.7001 17.3002 12.7001 17.3002 11.8001 17.3002C11.7001 17.3002 11.7001 17.3002 11.6001 17.3002C11.4001 17.3002 11.4001 17.3002 11.4001 17.5002C11.4001 17.5002 11.4001 17.5002 11.4001 17.6002C11.4001 18.7002 11.4001 19.9002 11.4001 21.0002V21.1002C11.4001 21.2002 11.4001 21.3002 11.6001 21.3002C11.7001 21.3002 11.7001 21.3002 11.8001 21.3002C12.8001 21.3002 13.7001 21.3002 14.7001 21.3002C15.0001 21.3002 15.0001 21.3002 15.0001 21.6002C15.0001 24.7002 15.0001 27.8002 15.0001 30.9002C15.0001 31.0002 15.0001 31.1002 15.0001 31.2002C15.7001 31.3002 16.4001 31.4002 17.2001 31.4002C17.7001 31.1002 18.5001 31.0002 19.2001 30.8002C19.2001 30.8002 19.2001 30.9002 19.2001 30.8002Z" fill="#E2DBD2"/>
</svg>
