<svg width="35" height="35" viewBox="0 0 35 35" fill="none" xmlns="http://www.w3.org/2000/svg">
<path d="M32.9219 19.6703C34.349 10.9213 28.4135 2.67199 19.6646 1.24485C10.9157 -0.182278 2.66633 5.75322 1.2392 14.5022C-0.18793 23.2511 5.74756 31.5004 14.4965 32.9276C23.2454 34.3547 31.4948 28.4192 32.9219 19.6703Z" stroke="#074A49" stroke-width="0.4222" stroke-miterlimit="10"/>
<path d="M29.0849 29.0903C35.7159 22.4593 35.7159 11.7082 29.0849 5.07718C22.4538 -1.55386 11.7028 -1.55386 5.07174 5.07718C-1.5593 11.7082 -1.5593 22.4593 5.07174 29.0903C11.7028 35.7213 22.4538 35.7213 29.0849 29.0903Z" stroke="#074A49" stroke-width="0.2041" stroke-miterlimit="10"/>
<path d="M27.5716 27.5771C33.367 21.7818 33.367 12.3857 27.5716 6.59038C21.7763 0.795052 12.3802 0.795052 6.58492 6.59038C0.789592 12.3857 0.789592 21.7818 6.58492 27.5771C12.3802 33.3724 21.7763 33.3724 27.5716 27.5771Z" stroke="#074A49" stroke-width="0.6334" stroke-miterlimit="10"/>
<path d="M17.08 3.11011C9.35998 3.11011 3.09998 9.37011 3.09998 17.0901C3.09998 21.2601 4.92998 24.9901 7.81998 27.5501L7.77998 27.5401L8.08998 32.3101L12.66 30.3501C14.05 30.8101 15.53 31.0701 17.08 31.0701C24.8 31.0701 31.06 24.8101 31.06 17.0901C31.06 9.37011 24.8 3.11011 17.08 3.11011Z" fill="#074A49"/>
<path d="M25.52 14.2801C25.47 14.3301 25.44 14.3901 25.41 14.4501C25.29 14.6201 25.18 14.7901 25.08 14.9701C24.92 15.1901 24.78 15.4301 24.63 15.6701C24.48 15.9101 24.32 16.1501 24.18 16.4001C24.03 16.6001 23.91 16.8201 23.77 17.0401C23.65 17.2301 23.54 17.4201 23.42 17.6001C23.33 17.7001 23.27 17.8201 23.2 17.9401C23.07 18.1501 22.93 18.3501 22.81 18.5701C22.61 18.8701 22.42 19.1701 22.23 19.4801C22.1 19.6801 21.98 19.8701 21.85 20.0701C21.81 20.1401 21.77 20.2101 21.73 20.2801C21.64 20.4101 21.55 20.5401 21.47 20.6801C21.3 20.9701 21.09 21.2201 20.82 21.4301C20.64 21.5301 20.46 21.6401 20.26 21.7101C19.57 21.9301 18.93 21.8201 18.35 21.4001C18.21 21.3001 18.08 21.1901 17.93 21.1001C17.7 20.9101 17.46 20.7401 17.22 20.5601C16.53 20.0401 15.84 19.5301 15.15 19.0101C14.98 18.8801 14.8 18.7901 14.58 18.7901C14.41 18.7901 14.25 18.8301 14.12 18.9301C13.71 19.2301 13.3 19.5301 12.91 19.8501C12.78 19.9301 12.66 20.0301 12.54 20.1201C12.23 20.3501 11.92 20.5901 11.61 20.8301C11.56 20.8701 11.52 20.9101 11.48 20.9401C11.29 21.0601 11.11 21.2101 10.93 21.3501C10.53 21.6501 10.13 21.9501 9.74 22.2601C9.72 22.2801 9.7 22.2901 9.67 22.3101C9.39 22.5101 9.07 22.4901 8.82 22.2701C8.58 22.0401 8.53 21.7201 8.72 21.4301C8.96 21.0401 9.21 20.6501 9.46 20.2501C9.64 19.9601 9.84 19.6701 10.01 19.3701C10.21 19.0801 10.39 18.7801 10.57 18.4901C10.98 17.8401 11.39 17.1901 11.8 16.5301C11.82 16.5001 11.83 16.4701 11.85 16.4501C11.97 16.2601 12.07 16.0701 12.2 15.8901C12.4 15.5901 12.59 15.2901 12.78 14.9801C12.9 14.7901 13.05 14.6201 13.21 14.4501C13.4 14.3101 13.59 14.1701 13.81 14.0901C14.53 13.8201 15.21 13.8901 15.84 14.3501C16.5 14.8301 17.14 15.3201 17.79 15.8101C18.22 16.1301 18.65 16.4601 19.09 16.7801C19.44 17.0401 19.81 17.0401 20.16 16.7801C20.28 16.6901 20.4 16.6001 20.51 16.5001C20.53 16.4801 20.55 16.4701 20.58 16.4601C20.82 16.2901 21.06 16.1101 21.29 15.9301C21.51 15.7801 21.72 15.6201 21.92 15.4501C22.15 15.2901 22.38 15.1201 22.6 14.9401C22.85 14.7501 23.1 14.5601 23.35 14.3801C23.4 14.3401 23.46 14.3101 23.5 14.2601C23.83 14.0201 24.16 13.7801 24.47 13.5201C24.58 13.4401 24.69 13.3701 24.82 13.3501C25.15 13.2901 25.51 13.5201 25.59 13.8401C25.63 13.9701 25.58 14.1201 25.52 14.2801Z" fill="#DDD6CD"/>
</svg>
