<svg id="Layer_1" data-name="Layer 1" xmlns="http://www.w3.org/2000/svg" viewBox="0 0 102.36 155.6"><defs><style>.cls-1{fill:#004c4a;}</style></defs><path class="cls-1" d="M21.73,7.69,76,7.88Q86.69,8.33,94.86,0l1.33.62L83.94,25.84a4.81,4.81,0,0,0-2.46-3.1c-1.3-.55-3.88-.84-7.73-.85l-47.63-.16L17.42,64.8Q34.88,49.91,55.2,50a47,47,0,0,1,25.44,7.41A45.5,45.5,0,0,1,97.49,76.2a49.75,49.75,0,0,1,4.87,22.18,53.92,53.92,0,0,1-8.45,29.26,55.89,55.89,0,0,1-28.32,23.2,73.78,73.78,0,0,1-26.73,4.76,75.15,75.15,0,0,1-35.74-9.3L0,123.82l1.44-.51q14.36,27.16,40.23,27.24,22,.07,33.67-18,8.18-12.65,8.24-29.35.08-21.75-13.29-33.76A37.06,37.06,0,0,0,45,59.43q-18.55-.06-32.12,16.9L9.55,75.18Z"/></svg>