<svg id="Layer_1" data-name="Layer 1" xmlns="http://www.w3.org/2000/svg" viewBox="0 0 126.68 168.79"><defs><style>.cls-1{fill:#004c4a;}</style></defs><path class="cls-1" d="M110.18,14.08a42.65,42.65,0,0,0-23-6.49q-15.28,0-30.79,11Q37.49,32.11,27.05,64.11a153.25,153.25,0,0,0-4.95,20A73.34,73.34,0,0,1,36.18,68.51Q52.89,55.21,73.24,55.2q24,0,39.58,18.26A56.14,56.14,0,0,1,126.68,111q0,25.41-19.14,42.23a60.5,60.5,0,0,1-41.12,15.61,61.45,61.45,0,0,1-36.18-11.54Q13,145.15,5,124A79.16,79.16,0,0,1,0,96.22Q0,65.43,19.68,39.48a101,101,0,0,1,46-33.76A87.49,87.49,0,0,1,95.78,0q13.41,0,19.79,3c1.54.73,2.31,1.58,2.31,2.53S116.74,8,114.47,10ZM64.77,65.21a42.1,42.1,0,0,0-21.33,6.05Q21.33,84,21.33,107.87a58.36,58.36,0,0,0,13.42,37.72q14.19,17.82,33.54,17.81,18.13,0,29.36-16.82,8.46-12.65,8.46-30.9,0-20.57-10.22-34.75Q84.45,65.21,64.77,65.21Z"/></svg>