<svg id="Layer_1" data-name="Layer 1" xmlns="http://www.w3.org/2000/svg" viewBox="0 0 108.55 150.77"><defs><style>.cls-1{fill:#004c4a;}</style></defs><path class="cls-1" d="M108.55,121.09l-13,29.68L0,149.88v-2.72s10.83-4.24,25.64-15.72C63.66,102,81,73.94,81.05,48.25a35.61,35.61,0,0,0-11.64-27.1q-10.33-9.91-26-10A37.77,37.77,0,0,0,26.7,14.83a15.77,15.77,0,0,0-5.82,4.43A52.4,52.4,0,0,1,16.39,31.6q-3.86,7-6.69,7-1.86,0-5.18-2.37c-1.24-.82-1.85-1.69-1.85-2.6q0-3,6.83-10a86.4,86.4,0,0,1,22-16.35Q45.64,0,59.6,0A41,41,0,0,1,82.67,7.12Q101.17,19.41,101.08,43c0,6.84-3.68,27.4-14.07,43.45-11.18,17.27-37,39.75-50.14,46.63l-2.48,1.35q16.19-1.8,22.12-1.66l23.34.08q9.27-.21,14.83-2.67A56.72,56.72,0,0,0,108.55,121.09Z"/></svg>