<svg id="Layer_1" data-name="Layer 1" xmlns="http://www.w3.org/2000/svg" viewBox="0 0 101.02 171.7"><defs><style>.cls-1{fill:#004c4a;}</style></defs><path class="cls-1" d="M35.57,78a80.73,80.73,0,0,0,19.81-5.68,36.23,36.23,0,0,0,15.52-13A35.48,35.48,0,0,0,77,38.93Q77,25.49,68,17A28.46,28.46,0,0,0,48.08,9.38,44.81,44.81,0,0,0,25.6,15.76Q17.73,30.82,15.18,30.82c-1,0-2.28-.62-3.83-1.86A4.08,4.08,0,0,1,9.5,26q0-2.89,7.41-9.15Q37.07,0,59.32,0q17.83,0,29,12.28a31.54,31.54,0,0,1,8.46,21.55q0,25.37-35.69,41.94a67.64,67.64,0,0,1,16.11,5.45,43.38,43.38,0,0,1,19,18.41A41.42,41.42,0,0,1,101,119.56q0,25.14-22.47,40.67a63.17,63.17,0,0,1-37,11.47q-21.09,0-40-12.4A105,105,0,0,1,0,140.3v-3.13H2.66a42.81,42.81,0,0,0,11.13,18.08Q24.91,165.78,41,165.79q19.47,0,30.7-13.9,8.81-10.9,8.81-27.12,0-20.61-14.14-32A36.64,36.64,0,0,0,43.1,84.46a56.72,56.72,0,0,0-7.88.69Z"/></svg>