<svg width="35" height="35" viewBox="0 0 35 35" fill="none" xmlns="http://www.w3.org/2000/svg">
<path d="M17.1001 33.1001C25.9367 33.1001 33.1001 25.9367 33.1001 17.1001C33.1001 8.26354 25.9367 1.1001 17.1001 1.1001C8.26354 1.1001 1.1001 8.26354 1.1001 17.1001C1.1001 25.9367 8.26354 33.1001 17.1001 33.1001Z" stroke="#174D4E" stroke-width="0.4222" stroke-miterlimit="10"/>
<path d="M17.1001 34.1001C26.4889 34.1001 34.1001 26.4889 34.1001 17.1001C34.1001 7.71126 26.4889 0.100098 17.1001 0.100098C7.71126 0.100098 0.100098 7.71126 0.100098 17.1001C0.100098 26.4889 7.71126 34.1001 17.1001 34.1001Z" stroke="#174D4E" stroke-width="0.2041" stroke-miterlimit="10"/>
<path d="M17.1 31.9C25.2739 31.9 31.9 25.2739 31.9 17.1C31.9 8.92623 25.2739 2.30005 17.1 2.30005C8.92623 2.30005 2.30005 8.92623 2.30005 17.1C2.30005 25.2739 8.92623 31.9 17.1 31.9Z" stroke="#174D4E" stroke-width="0.6334" stroke-miterlimit="10"/>
<path d="M17.1001 31.1001C24.8321 31.1001 31.1001 24.8321 31.1001 17.1001C31.1001 9.36811 24.8321 3.1001 17.1001 3.1001C9.36811 3.1001 3.1001 9.36811 3.1001 17.1001C3.1001 24.8321 9.36811 31.1001 17.1001 31.1001Z" fill="#174D4E"/>
<path d="M24.2 25.3002C23.9 25.7002 23.5 26.0002 23.1 26.1002C22.7 26.2002 22.2 26.2002 21.8 26.1002C20.5 25.9002 19.2 25.5002 18 25.0002C17.5 24.8002 17 24.5002 16.5 24.3002C16 24.0002 15.6 23.8002 15.2 23.5002C13.9 22.6002 12.7 21.6002 11.8 20.3002C11.3 19.7002 10.9 19.1002 10.5 18.4002C9.4 16.7002 8.7 14.9002 8.3 12.9002C8.2 12.6002 8.2 12.2002 8.1 11.9002C8 11.1002 8.3 10.5002 8.9 10.0002C9 10.2002 9.1 10.5002 9.2 10.7002C10.1 12.7002 11 14.6002 12 16.6002C12.2 17.0002 12.4 17.3002 12.6 17.6002C13.8 19.5002 15.4 21.0002 17.4 22.1002C18 22.4002 18.6 22.7002 19.3 23.0002C20.9 23.8002 22.5 24.5002 24.1 25.3002C24.1 25.2002 24.1 25.2002 24.2 25.3002Z" fill="#E2DBD2"/>
<path d="M24.6999 24.7001C22.5999 23.7001 20.4999 22.7001 18.3999 21.8001C18.5999 21.4001 18.7999 21.0001 18.9999 20.6001C19.1999 20.2001 19.4999 20.1001 19.8999 20.2001C21.2999 20.5001 22.7999 20.9001 24.1999 21.2001C24.5999 21.3001 24.7999 21.6001 24.7999 22.0001C24.7999 22.6001 24.7999 23.2001 24.7999 23.8001C24.8999 24.1001 24.7999 24.4001 24.6999 24.7001Z" fill="#E2DBD2"/>
<path d="M9.5 9.50029C9.8 9.30029 10.1 9.30029 10.4 9.30029C11 9.30029 11.6 9.30029 12.2 9.30029C12.6 9.30029 12.9 9.50029 13 9.90029C13.3 11.3003 13.7 12.7003 14 14.1003C14.1 14.6003 14 14.9003 13.5 15.1003C13.1 15.3003 12.7 15.5003 12.4 15.7003C11.4 13.7003 10.4 11.6003 9.5 9.50029Z" fill="#E2DBD2"/>
<path d="M25.4 16.9002C25.4 17.0002 25.4 17.1002 25.4 17.2002C25.4 17.4002 25.2 17.6002 25 17.6002C24.8 17.6002 24.6 17.5002 24.6 17.2002C24.6 16.8002 24.6 16.4002 24.5 16.0002C24.1 13.1002 21.9 10.6002 19 9.8002C18.4 9.6002 17.8 9.6002 17.1 9.6002C16.9 9.6002 16.8 9.5002 16.7 9.3002C16.6 9.1002 16.6 9.0002 16.7 8.9002C16.8 8.8002 16.9 8.7002 17.1 8.7002C18.4 8.7002 19.6 9.0002 20.8 9.6002C23.5 11.0002 25 13.2002 25.4 16.3002C25.3 16.6002 25.3 16.7002 25.4 16.9002Z" fill="#E2DBD2"/>
<path d="M17.2 10.9001C17.9 10.9001 18.5 11.1001 19.2 11.3001C21.5 12.2001 22.8 13.8001 23.2 16.2001C23.3 16.5001 23.3 16.9001 23.3 17.2001C23.3 17.5001 23.1 17.6001 22.8 17.6001C22.6 17.6001 22.4 17.4001 22.4 17.2001C22.4 17.1001 22.4 17.0001 22.4 16.8001C22.3 15.5001 21.9 14.4001 21 13.5001C20.1 12.5001 19 11.9001 17.7 11.8001C17.4 11.8001 17.2 11.8001 16.9 11.7001C16.6 11.7001 16.5 11.5001 16.5 11.3001C16.5 11.1001 16.7 10.9001 17 10.9001C17.1 10.9001 17.2 10.9001 17.2 10.9001Z" fill="#E2DBD2"/>
<path d="M17.2 12.9003C19.2 12.9003 20.9999 14.5003 21.2999 16.5003C21.2999 16.7003 21.3 17.0003 21.4 17.2003C21.4 17.4003 21.2 17.6003 21.1 17.6003C20.9 17.6003 20.7 17.6003 20.6 17.4003C20.5 17.3003 20.5 17.1003 20.5 17.0003C20.4 16.2003 20.1 15.4003 19.6 14.8003C18.9 14.1003 18.1 13.7003 17.1 13.7003C16.9 13.7003 16.7 13.5003 16.7 13.3003C16.7 13.1003 16.8 12.9003 17 12.8003C17 12.9003 17.1 13.0003 17.2 12.9003Z" fill="#E2DBD2"/>
</svg>
