<svg width="67" height="75" viewBox="0 0 67 75" fill="none" xmlns="http://www.w3.org/2000/svg">
<g clip-path="url(#clip0_1918_8828)">
<path d="M35 33.1001H34.5V73.5001H35V33.1001Z" fill="#0C4C4C"/>
<path d="M35.9002 73.4C35.9002 74 35.4002 74.5 34.8002 74.5C34.2002 74.5 33.7002 74 33.7002 73.4C33.7002 72.8 34.2002 72.3 34.8002 72.3C35.4002 72.3 35.9002 72.8 35.9002 73.4Z" fill="#0C4C4C"/>
<path d="M66.6 0H0V35.6H66.6V0Z" fill="#0C4C4C"/>
<path d="M16.6001 13.5L16.1001 15.4C15.7001 15.4 15.3001 15.4 15.0001 15.4C14.8001 15.4 14.6001 15.4 14.4001 15.4C14.3001 15.4 14.2001 15.4 14.1001 15.4H14.0001H10.2001C10.7001 15.2 10.9001 15 11.0001 14.6C11.0001 14.4 11.0001 14.2 11.0001 14C11.0001 13.8 11.0001 13.6 11.0001 13.3V9.09995C11.0001 8.59995 11.0001 8.19995 10.9001 7.99995C10.8001 7.49995 10.6001 7.39995 10.1001 7.19995H13.1001C12.8001 7.39995 12.6001 7.49995 12.5001 7.59995C12.3001 7.79995 12.2001 8.19995 12.2001 8.79995V14.4C12.2001 14.7 12.3001 14.8 12.5001 14.9C12.6001 15 13.0001 15 13.6001 15C14.3001 15 14.9001 14.9 15.3001 14.6C15.7001 14.3 16.0001 13.9 16.2001 13.5H16.6001Z" fill="white"/>
<path d="M16.6001 15.4001C17.4001 15.1001 17.4001 14.7001 17.4001 13.9001L17.5001 11.2001C17.5001 10.7001 17.5001 10.3001 17.5001 10.0001C17.5001 9.1001 17.5001 8.4001 17.4001 8.1001C17.3001 7.8001 17.2001 7.6001 17.0001 7.4001C16.9001 7.4001 16.9001 7.3001 16.8001 7.3001C16.8001 7.3001 16.7001 7.3001 16.7001 7.2001H16.9001H19.9001C20.5001 7.2001 21.5001 7.2001 22.8001 7.1001L23.0001 8.8001L22.8001 8.9001C22.7001 8.7001 22.5001 8.4001 22.3001 8.3001C21.9001 8.0001 21.5001 7.8001 21.3001 7.7001L20.4001 7.6001H19.0001L18.9001 10.7001C18.9001 10.8001 18.9001 10.8001 19.0001 10.8001C19.0001 10.8001 19.1001 10.8001 19.2001 10.8001H20.4001H20.5001H20.6001C20.9001 10.8001 21.2001 10.7001 21.4001 10.6001C21.8001 10.4001 21.9001 10.1001 22.1001 9.8001H22.2001V12.2001L22.0001 12.3001C21.8001 11.9001 21.6001 11.6001 21.3001 11.4001C21.1001 11.3001 20.9001 11.2001 20.5001 11.2001H20.3001H18.9001V13.7001C18.9001 13.7001 18.9001 13.7001 18.9001 13.8001C18.9001 13.8001 18.9001 13.9001 18.9001 14.0001C18.9001 14.2001 18.9001 14.4001 19.0001 14.7001C19.1001 15.1001 19.6001 15.1001 19.9001 15.1001C20.4001 15.1001 20.9001 15.1001 21.2001 15.0001C22.0001 14.9001 22.9001 14.4001 23.3001 13.7001H23.4001L23.0001 15.4001C21.4001 15.4001 20.6001 15.4001 20.4001 15.4001H16.6001Z" fill="white"/>
<path d="M31.4999 7.50015L31.7999 9.50015H31.6999C30.7999 8.50015 29.6999 7.20015 28.1999 7.20015C27.2999 7.20015 26.4999 7.60015 25.7999 8.40015C25.1999 9.10015 24.9999 10.2001 24.9999 11.1001C24.9999 12.3001 25.2999 13.3001 25.9999 14.2001C26.5999 14.9001 27.2999 15.3001 28.1999 15.3001C28.8999 15.3001 29.3999 15.1001 29.8999 14.8001C30.1999 14.6001 30.2999 14.4001 30.3999 14.2001C30.3999 14.0001 30.4999 13.8001 30.4999 13.5001C30.4999 13.2001 30.4999 12.9001 30.3999 12.7001C30.2999 12.5001 30.1999 12.3001 29.8999 12.1001C29.7999 12.1001 29.6999 12.0001 29.4999 11.9001H32.5999C32.3999 12.0001 32.0999 12.1001 31.9999 12.3001C31.8999 12.5001 31.7999 12.7001 31.7999 13.2001V14.5001C30.5999 15.3001 29.3999 15.6001 28.0999 15.6001C27.2999 15.6001 26.5999 15.4001 25.8999 15.1001C24.2999 14.4001 23.3999 13.0001 23.3999 11.3001C23.3999 10.4001 23.5999 9.60015 24.0999 8.90015C24.9999 7.50015 26.4999 6.90015 28.1999 6.90015C29.0999 6.90015 29.6999 7.00015 30.4999 7.40015C30.7999 7.60015 31.0999 7.60015 31.1999 7.60015C31.2999 7.60015 31.3999 7.60015 31.4999 7.50015Z" fill="white"/>
<path d="M34.2001 12.4001L33.7001 13.6001C33.5001 14.0001 33.4001 14.4001 33.4001 14.6001C33.4001 14.8001 33.5001 15.0001 33.6001 15.1001C33.7001 15.2001 33.8001 15.3001 34.0001 15.4001H31.6001C31.9001 15.1001 32.2001 14.8001 32.4001 14.6001C32.6001 14.4001 32.8001 14.1001 33.0001 13.7001L35.0001 9.7001C35.1001 9.5001 35.3001 9.1001 35.6001 8.5001C35.9001 7.7001 36.1001 7.2001 36.2001 7.2001H36.3001C36.4001 7.2001 36.6001 7.2001 36.8001 7.1001H36.9001C36.9001 7.1001 37.0001 7.1001 37.0001 7.2001C37.0001 7.3001 37.1001 7.6001 37.3001 7.9001C37.5001 8.3001 37.7001 8.7001 37.8001 9.1001L40.0001 14.0001C40.2001 14.4001 40.4001 14.7001 40.5001 14.9001C40.7001 15.1001 40.9001 15.3001 41.0001 15.4001H38.2001C38.4001 15.3001 38.6001 15.2001 38.6001 15.2001C38.7001 15.1001 38.8001 15.0001 38.8001 14.8001C38.8001 14.7001 38.7001 14.5001 38.6001 14.2001L37.9001 12.6001C37.9001 12.5001 37.8001 12.5001 37.8001 12.5001C37.8001 12.5001 37.7001 12.5001 37.6001 12.5001L34.2001 12.4001ZM37.6001 12.1001L36.1001 8.5001C36.1001 8.4001 36.0001 8.4001 36.0001 8.4001C36.0001 8.4001 35.9001 8.4001 35.9001 8.5001L34.4001 11.9001C34.4001 12.0001 34.4001 12.0001 34.4001 12.1001C34.4001 12.2001 34.4001 12.2001 34.5001 12.2001H34.6001H37.6001V12.1001Z" fill="white"/>
<path d="M47.9 7.60005L48.1 9.40005H47.9C47.7 9.10005 47.5 8.80005 47.2 8.50005C46.4 7.60005 45.5 7.10005 44.6 7.10005C43.4 7.10005 42.4 7.90005 42 8.90005C41.7 9.60005 41.6 10.3 41.6 11.1C41.6 12.2 41.9 13.2 42.4 13.9C43 14.8 43.9 15.2 44.9 15.2C46.2 15.2 47.3 14.4 47.9 13.4H48L47.8 14.7C47 15.3 45.6 15.6 44.5 15.6C41.9 15.6 40 13.7 40 11.2C40 9.90005 40.5 8.90005 41.4 8.00005C42.3 7.20005 43.4 6.80005 44.7 6.80005C45.4 6.80005 46 6.90005 46.5 7.10005C47 7.30005 47.3 7.50005 47.3 7.50005C47.4 7.60005 47.5 7.60005 47.6 7.60005C47.7 7.60005 47.7 7.60005 47.8 7.50005L47.9 7.60005Z" fill="white"/>
<path d="M51.5998 12L49.1998 8.59995C48.7998 8.09995 48.5998 7.79995 48.4998 7.69995C48.3998 7.59995 48.0998 7.39995 47.7998 7.19995C48.2998 7.19995 48.7998 7.19995 49.0998 7.19995C49.1998 7.19995 49.8998 7.19995 51.0998 7.19995C50.6998 7.39995 50.4998 7.49995 50.4998 7.79995C50.4998 7.89995 50.4998 7.99995 50.5998 7.99995C50.6998 8.19995 50.7998 8.49995 50.9998 8.69995L52.8998 11.4L54.5998 8.89995C54.7998 8.49995 54.9998 8.19995 54.9998 7.99995C54.9998 7.79995 54.8998 7.59995 54.6998 7.49995C54.5998 7.49995 54.5998 7.39995 54.3998 7.39995C54.3998 7.39995 54.2998 7.39995 54.2998 7.29995C54.6998 7.29995 55.0998 7.29995 55.6998 7.29995C56.2998 7.29995 56.6998 7.29995 56.8998 7.29995C56.5998 7.49995 56.3998 7.59995 56.2998 7.79995C56.0998 7.89995 55.7998 8.39995 55.1998 9.09995C55.0998 8.89995 54.9998 8.99995 54.9998 8.99995L52.9998 11.8V13.8C52.9998 14.4 53.0998 14.8 53.1998 14.9C53.2998 15 53.4998 15.1 53.6998 15.3C53.7998 15.3 53.7998 15.4 53.8998 15.4H50.7998C51.0998 15.3 51.1998 15.2 51.3998 15.1C51.4998 14.9 51.5998 14.8 51.5998 14.6V14V13.9V12Z" fill="white"/>
<path d="M15.6 20.0001L15.9 22.0001H15.8C14.9 21.0001 13.8 19.7001 12.3 19.7001C11.4 19.7001 10.6 20.1001 9.9 20.9001C9.3 21.6001 9.1 22.7001 9.1 23.6001C9.1 24.8001 9.4 25.8001 10.1 26.7001C10.7 27.4001 11.4 27.8001 12.3 27.8001C13 27.8001 13.5 27.6001 14 27.3001C14.3 27.1001 14.4 26.9001 14.5 26.7001C14.5 26.5001 14.6 26.3001 14.6 26.0001C14.6 25.7001 14.6 25.4001 14.5 25.2001C14.4 25.0001 14.3 24.8001 14 24.6001C13.9 24.6001 13.8 24.5001 13.6 24.4001H16.7C16.5 24.5001 16.2 24.6001 16.1 24.8001C16 25.0001 15.9 25.2001 15.9 25.7001V27.0001C14.7 27.8001 13.5 28.1001 12.2 28.1001C11.4 28.1001 10.7 27.9001 10 27.6001C8.4 26.9001 7.5 25.5001 7.5 23.8001C7.5 22.9001 7.7 22.1001 8.2 21.4001C9.1 20.0001 10.6 19.4001 12.3 19.4001C13.2 19.4001 13.8 19.5001 14.6 19.9001C14.9 20.1001 15.2 20.1001 15.3 20.1001C15.4 20.2001 15.5 20.1001 15.6 20.0001Z" fill="white"/>
<path d="M18.3002 24.9L17.8002 26.1C17.6002 26.5 17.5002 26.9 17.5002 27.1C17.5002 27.3 17.6002 27.5 17.7002 27.6C17.8002 27.7 17.9002 27.8 18.1002 27.9H15.7002C16.0002 27.6 16.3002 27.3 16.5002 27.1C16.7002 26.9 16.9002 26.6 17.1002 26.2L19.0002 22.2999C19.1002 22.0999 19.3002 21.7 19.6002 21.1C19.9002 20.3 20.1002 19.7999 20.2002 19.7999H20.3002C20.4002 19.7999 20.6002 19.8 20.8002 19.7H20.9002C20.9002 19.7 21.0002 19.6999 21.0002 19.7999C21.0002 19.8999 21.1002 20.2 21.3002 20.5C21.5002 20.9 21.7002 21.3 21.8002 21.7L24.0002 26.6C24.2002 27 24.4002 27.3 24.5002 27.5C24.7002 27.7 24.9002 27.9 25.0002 28H22.2002C22.4002 27.9 22.6002 27.7999 22.6002 27.7999C22.7002 27.6999 22.8002 27.6 22.8002 27.4C22.8002 27.3 22.7002 27.0999 22.6002 26.7999L22.0002 25.1C22.0002 25 21.9002 25 21.9002 25C21.9002 25 21.8002 25 21.7002 25L18.3002 24.9ZM21.7002 24.6L20.2002 21C20.2002 20.9 20.1002 20.9 20.1002 20.9C20.1002 20.9 20.0002 20.9 20.0002 21L18.5002 24.4C18.5002 24.5 18.5002 24.5 18.5002 24.6C18.5002 24.7 18.5002 24.7 18.6002 24.7H18.7002H21.7002V24.6Z" fill="white"/>
<path d="M31.7 26.0001C32.5 26.8001 32.9 27.2001 33 27.4001C33.2 27.6001 33.5 27.7001 33.8 27.9001C33.5 28.0001 32.9 28.0001 32.6 28.0001C31.7 28.0001 31.3 27.6001 30.8 27.0001L28.6 24.6001C28.4 24.4001 28.3 24.3001 28.3 24.3001C28.2 24.3001 28.1 24.2001 27.9 24.2001H27.8H27.2V26.6001C27.2 27.0001 27.3 27.3001 27.4 27.5001C27.5 27.7001 27.7 27.8001 28 28.0001H25L25.1 27.9001C25.5 27.6001 25.7 27.4001 25.7 26.9001C25.7 26.5001 25.7 26.3001 25.7 26.3001L25.8 22.0001V21.9001C25.8 21.2001 25.8 20.8001 25.7 20.6001C25.7 20.4001 25.6 20.2001 25.5 20.1001C25.4 20.0001 25.3 19.9001 25.1 19.9001C25.8 19.9001 26.3 19.9001 26.6 19.9001C26.9 19.9001 27.4 19.9001 28 19.9001C28.4 19.9001 28.7 19.9001 28.9 19.9001C29.8 19.9001 30.5 20.1001 31 20.4001C31.7 20.8001 32 21.3001 32 22.0001C32 22.5001 31.8 22.9001 31.5 23.3001C31.2 23.7001 30.6 24.0001 29.9 24.2001L31.7 26.0001ZM27.1 23.6001C27.1 23.7001 27.2 23.8001 27.2 23.8001C27.3 23.8001 27.6 23.8001 28.1 23.8001C28.9 23.8001 29.4 23.7001 29.8 23.5001C30.4 23.2001 30.6 22.6001 30.6 22.0001C30.6 21.5001 30.5 21.2001 30.2 20.8001C29.8 20.3001 29.1 20.1001 28.1 20.1001C27.9 20.1001 27.6 20.1001 27.2 20.1001L27.1 23.6001Z" fill="white"/>
<path d="M34.1998 25.7V22.1C34.1998 22.1 34.1998 22.1 34.1998 22C34.1998 21 34.0998 20.4 33.9998 20.2C33.8998 20 33.6998 19.9 33.2998 19.7H33.4998H34.7998C34.9998 19.7 35.4998 19.7 36.1998 19.7C36.5998 19.7 37.0998 19.7 37.3998 19.7C38.8998 19.7 40.0998 20 40.8998 20.7C41.7998 21.5 42.2998 22.4 42.2998 23.7C42.2998 24.7 41.9998 25.7 41.2998 26.5C40.1998 27.7 38.7998 28.1 37.1998 28.1C36.9998 28.1 36.7998 28.1 36.5998 28.1C36.1998 28.1 35.8998 28.1 35.8998 28.1H33.5998H33.3998C33.6998 28 33.8998 27.8 33.9998 27.7C34.0998 27.6 34.1998 27.3 34.1998 27V25.7ZM35.5998 20.6C35.5998 20.7 35.5998 20.9 35.5998 21.1C35.5998 21.4 35.5998 21.5 35.5998 21.6V21.7999V25.4V25.5C35.5998 25.6 35.5998 25.8999 35.5998 26.2999C35.5998 26.7999 35.6998 27.2 35.7998 27.4C35.8998 27.6 36.2998 27.6 36.6998 27.6C39.0998 27.6 40.7998 26.0999 40.7998 23.7999C40.7998 22.8999 40.4998 22.1 39.9998 21.4C39.2998 20.5 38.1998 20 36.5998 20C36.2998 20 35.9998 20 35.5998 20V20.6Z" fill="white"/>
<path d="M42.6001 27.9001C43.4001 27.6001 43.4001 27.2001 43.4001 26.4001L43.5001 23.7001C43.5001 23.2001 43.5001 22.8001 43.5001 22.5001C43.5001 21.6001 43.5001 20.9001 43.4001 20.6001C43.3001 20.3001 43.2001 20.1001 43.0001 19.9001C42.9001 19.9001 42.9001 19.8001 42.8001 19.8001C42.8001 19.8001 42.7001 19.8001 42.7001 19.7001H42.9001H45.9001C46.5001 19.7001 47.5001 19.7001 48.8001 19.6001L49.0001 21.2001L48.8001 21.3001C48.7001 21.1001 48.5001 20.8001 48.3001 20.7001C47.9001 20.4001 47.5001 20.2001 47.3001 20.1001L46.4001 20.0001H45.0001L44.9001 23.1001C44.9001 23.2001 44.9001 23.2001 45.0001 23.2001C45.0001 23.2001 45.1001 23.2001 45.2001 23.2001H46.4001H46.5001H46.6001C46.9001 23.2001 47.2001 23.1001 47.4001 23.0001C47.8001 22.8001 47.9001 22.5001 48.1001 22.2001H48.2001V24.6001L48.0001 24.8001C47.8001 24.4001 47.6001 24.1001 47.3001 23.9001C47.1001 23.8001 46.9001 23.7001 46.5001 23.7001H46.3001H44.9001V26.2001C44.9001 26.2001 44.9001 26.2001 44.9001 26.3001C44.9001 26.3001 44.9001 26.4001 44.9001 26.5001C44.9001 26.7001 44.9001 26.9001 45.0001 27.2001C45.1001 27.6001 45.6001 27.6001 45.9001 27.6001C46.4001 27.6001 46.9001 27.6001 47.2001 27.5001C48.0001 27.4001 48.9001 26.9001 49.3001 26.2001H49.4001L49.0001 27.9001C47.4001 27.9001 46.6001 27.9001 46.4001 27.9001H42.6001Z" fill="white"/>
<path d="M52.0001 19.6L57.6001 25.9V22.1C57.6001 21.3 57.5001 20.8 57.4001 20.5C57.3001 20.1 57.0001 19.8 56.6001 19.6L59.0001 19.5C58.6001 19.8 58.3001 20 58.2001 20.6L58.1001 22.7V22.8V28H57.4001C57.1001 27.7 56.1001 26.5 54.3001 24.4C53.7001 23.6 52.6001 22.5 51.2001 21L51.3001 26.2C51.3001 26.8 51.4001 27.2 51.6001 27.4C51.7001 27.6 52.0001 27.7 52.3001 27.9H49.8001C50.7001 27.5 50.8001 26.9 50.8001 26.1V26V20.4C50.7001 20.3 50.5001 20.1 50.3001 20C50.2001 19.9 49.9001 19.8 49.6001 19.6H52.0001Z" fill="white"/>
</g>
<defs>
<clipPath id="clip0_1918_8828">
<rect width="66.6" height="74.5" fill="white"/>
</clipPath>
</defs>
</svg>
